<svg xmlns="http://www.w3.org/2000/svg" width="16" height="16" viewBox="0 0 16 16" fill="none">
<path d="M7.15594 3.38241C7.43698 3.34981 7.71968 3.33356 8.0026 3.33374C11.1119 3.33374 13.6026 5.26907 14.6693 8.00041C14.4111 8.6648 14.0622 9.29028 13.6326 9.85907M4.34927 4.34641C2.98927 5.17641 1.93594 6.46241 1.33594 8.00041C2.4026 10.7317 4.89327 12.6671 8.0026 12.6671C9.29069 12.6739 10.5554 12.3231 11.6559 11.6537M6.58927 6.58707C6.40354 6.77281 6.25621 6.9933 6.15569 7.23598C6.05517 7.47865 6.00343 7.73874 6.00343 8.00141C6.00343 8.26407 6.05517 8.52417 6.15569 8.76684C6.25621 9.00951 6.40354 9.23001 6.58927 9.41574C6.775 9.60147 6.9955 9.74881 7.23817 9.84932C7.48084 9.94984 7.74094 10.0016 8.0036 10.0016C8.26627 10.0016 8.52636 9.94984 8.76904 9.84932C9.01171 9.74881 9.2322 9.60147 9.41794 9.41574" stroke="#030303" stroke-linecap="round" stroke-linejoin="round"/>
<path d="M2.67188 2.66699L13.3385 13.3337" stroke="#030303" stroke-linecap="round"/>
</svg>