<svg xmlns="http://www.w3.org/2000/svg" width="548" height="597" viewBox="0 0 548 597" fill="none">
<g filter="url(#filter0_f_1069_122126)">
<path fill-rule="evenodd" clip-rule="evenodd" d="M458.386 402.152C466.487 402.326 475.769 399.008 482.38 403.687C489.295 408.582 488.127 419.489 492.829 426.532C496.771 432.436 504.105 435.363 507.638 441.52C511.448 448.158 514.311 455.688 513.948 463.33C513.581 471.057 510.466 478.702 505.588 484.711C500.874 490.516 492.414 491.63 486.884 496.666C480.575 502.411 478.828 513.127 470.902 516.296C463.225 519.365 454.668 514.666 446.621 512.763C438.705 510.891 430.388 509.795 423.723 505.138C417.025 500.458 411.766 493.726 408.603 486.199C405.554 478.943 407.145 470.782 406.016 462.995C404.844 454.912 398.431 446.586 401.777 439.133C405.235 431.433 417.254 431.874 422.837 425.538C428.507 419.104 426.761 407.362 433.928 402.647C440.812 398.118 450.143 401.976 458.386 402.152Z" fill="#BCFD00"/>
</g>
<defs>
<filter id="filter0_f_1069_122126" x="0.820312" y="0.453125" width="913.156" height="916.857" filterUnits="userSpaceOnUse" color-interpolation-filters="sRGB">
<feFlood flood-opacity="0" result="BackgroundImageFix"/>
<feBlend mode="normal" in="SourceGraphic" in2="BackgroundImageFix" result="shape"/>
<feGaussianBlur stdDeviation="200" result="effect1_foregroundBlur_1069_122126"/>
</filter>
</defs>
</svg>