<svg width="25" height="24" viewBox="0 0 25 24" fill="none" xmlns="http://www.w3.org/2000/svg">
<path d="M19.776 5.33005C18.446 4.71005 17.006 4.26005 15.506 4.00005C15.4928 3.99963 15.4797 4.00209 15.4676 4.00728C15.4556 4.01246 15.4447 4.02023 15.436 4.03005C15.256 4.36005 15.046 4.79005 14.906 5.12005C13.315 4.88005 11.697 4.88005 10.106 5.12005C9.96598 4.78005 9.75598 4.36005 9.56598 4.03005C9.55598 4.01005 9.52598 4.00005 9.49598 4.00005C7.99598 4.26005 6.56598 4.71005 5.22598 5.33005C5.21598 5.33005 5.20598 5.34005 5.19598 5.35005C2.47598 9.42005 1.72598 13.38 2.09598 17.3C2.09598 17.32 2.10598 17.34 2.12598 17.35C3.92598 18.67 5.65598 19.47 7.36598 20C7.39598 20.01 7.42598 20 7.43598 19.98C7.83598 19.43 8.19598 18.85 8.50598 18.24C8.52598 18.2 8.50598 18.16 8.46598 18.15C7.89598 17.93 7.35598 17.67 6.82598 17.37C6.78598 17.35 6.78598 17.29 6.81598 17.26C6.92598 17.18 7.03598 17.09 7.14598 17.01C7.16598 16.99 7.19598 16.99 7.21598 17C10.656 18.57 14.366 18.57 17.766 17C17.786 16.99 17.816 16.99 17.836 17.01C17.946 17.1 18.056 17.18 18.166 17.27C18.206 17.3 18.206 17.36 18.156 17.38C17.636 17.69 17.086 17.94 16.516 18.16C16.476 18.17 16.466 18.22 16.476 18.25C16.796 18.86 17.156 19.44 17.546 19.99C17.576 20 17.606 20.01 17.636 20C19.356 19.47 21.086 18.67 22.886 17.35C22.906 17.34 22.916 17.32 22.916 17.3C23.356 12.77 22.186 8.84005 19.816 5.35005C19.806 5.34005 19.796 5.33005 19.776 5.33005ZM9.02598 14.91C7.99598 14.91 7.13598 13.96 7.13598 12.79C7.13598 11.62 7.97598 10.67 9.02598 10.67C10.086 10.67 10.926 11.63 10.916 12.79C10.916 13.96 10.076 14.91 9.02598 14.91ZM15.996 14.91C14.966 14.91 14.106 13.96 14.106 12.79C14.106 11.62 14.946 10.67 15.996 10.67C17.056 10.67 17.896 11.63 17.886 12.79C17.886 13.96 17.056 14.91 15.996 14.91Z" fill="#030303"/>
</svg>
