<svg width="36" height="36" viewBox="0 0 36 36" fill="none" xmlns="http://www.w3.org/2000/svg">
<rect width="36" height="36" rx="18" fill="#FFF1EE"/>
<g clip-path="url(#clip0_1898_23359)">
<path d="M18 9C18.8262 9 19.623 9.10547 20.3906 9.31641C21.1582 9.52734 21.873 9.83203 22.5352 10.2305C23.1973 10.6289 23.8037 11.0977 24.3545 11.6367C24.9053 12.1758 25.377 12.7822 25.7695 13.4561C26.1621 14.1299 26.4639 14.8477 26.6748 15.6094C26.8857 16.3711 26.9941 17.168 27 18C27 18.8262 26.8945 19.623 26.6836 20.3906C26.4727 21.1582 26.168 21.873 25.7695 22.5352C25.3711 23.1973 24.9023 23.8037 24.3633 24.3545C23.8242 24.9053 23.2178 25.377 22.5439 25.7695C21.8701 26.1621 21.1523 26.4639 20.3906 26.6748C19.6289 26.8857 18.832 26.9941 18 27C17.1738 27 16.377 26.8945 15.6094 26.6836C14.8418 26.4727 14.127 26.168 13.4648 25.7695C12.8027 25.3711 12.1963 24.9023 11.6455 24.3633C11.0947 23.8242 10.623 23.2178 10.2305 22.5439C9.83789 21.8701 9.53613 21.1523 9.3252 20.3906C9.11426 19.6289 9.00586 18.832 9 18C9 17.1738 9.10547 16.377 9.31641 15.6094C9.52734 14.8418 9.83203 14.127 10.2305 13.4648C10.6289 12.8027 11.0977 12.1963 11.6367 11.6455C12.1758 11.0947 12.7822 10.623 13.4561 10.2305C14.1299 9.83789 14.8477 9.53613 15.6094 9.3252C16.3711 9.11426 17.168 9.00586 18 9ZM18 25.875C18.7266 25.875 19.4238 25.7812 20.0918 25.5938C20.7598 25.4062 21.3867 25.1426 21.9727 24.8027C22.5586 24.4629 23.0889 24.0527 23.5635 23.5723C24.0381 23.0918 24.4482 22.5615 24.7939 21.9814C25.1396 21.4014 25.4062 20.7744 25.5938 20.1006C25.7812 19.4268 25.875 18.7266 25.875 18C25.875 17.2734 25.7812 16.5762 25.5938 15.9082C25.4062 15.2402 25.1426 14.6133 24.8027 14.0273C24.4629 13.4414 24.0527 12.9111 23.5723 12.4365C23.0918 11.9619 22.5615 11.5518 21.9814 11.2061C21.4014 10.8604 20.7744 10.5938 20.1006 10.4062C19.4268 10.2188 18.7266 10.125 18 10.125C17.2734 10.125 16.5762 10.2188 15.9082 10.4062C15.2402 10.5938 14.6133 10.8574 14.0273 11.1973C13.4414 11.5371 12.9111 11.9473 12.4365 12.4277C11.9619 12.9082 11.5518 13.4385 11.2061 14.0186C10.8604 14.5986 10.5938 15.2256 10.4062 15.8994C10.2188 16.5732 10.125 17.2734 10.125 18C10.125 18.7266 10.2188 19.4238 10.4062 20.0918C10.5938 20.7598 10.8574 21.3867 11.1973 21.9727C11.5371 22.5586 11.9473 23.0889 12.4277 23.5635C12.9082 24.0381 13.4385 24.4482 14.0186 24.7939C14.5986 25.1396 15.2256 25.4062 15.8994 25.5938C16.5732 25.7812 17.2734 25.875 18 25.875ZM21.8936 14.8975L18.7998 18L21.8936 21.1025L21.1025 21.8936L18 18.7998L14.8975 21.8936L14.1064 21.1025L17.2002 18L14.1064 14.8975L14.8975 14.1064L18 17.2002L21.1025 14.1064L21.8936 14.8975Z" fill="#FF7663" stroke="#FF7663" stroke-width="0.6"/>
</g>
<defs>
<clipPath id="clip0_1898_23359">
<rect width="20" height="20" fill="white" transform="translate(8 8)"/>
</clipPath>
</defs>
</svg>
