<svg xmlns="http://www.w3.org/2000/svg" width="16" height="16" viewBox="0 0 16 16" fill="none">
<path d="M8.97741 1C8.97719 0.782996 9.04764 0.571818 9.1781 0.398406C9.30857 0.224994 9.49195 0.0987803 9.70052 0.0388505C9.90909 -0.0210792 10.1315 -0.0114649 10.3341 0.0662394C10.5367 0.143944 10.7085 0.285512 10.8236 0.469535L13.5089 3.15485C13.6016 3.24767 13.6752 3.35784 13.7254 3.47909C13.7755 3.60034 13.8013 3.73028 13.8013 3.86149C13.8012 3.99271 13.7753 4.12263 13.7251 4.24385C13.6748 4.36506 13.6012 4.47518 13.5084 4.56793C13.4156 4.66069 13.3054 4.73425 13.1841 4.78442C13.0629 4.83459 12.9329 4.86039 12.8017 4.86034C12.6705 4.8603 12.5406 4.83441 12.4194 4.78415C12.2982 4.73389 12.188 4.66025 12.0953 4.56743L10.9764 3.44755V10.99C10.9764 11.255 10.8712 11.5091 10.6838 11.6964C10.4965 11.8838 10.2424 11.989 9.97741 11.989C9.71246 11.989 9.45836 11.8838 9.27101 11.6964C9.08366 11.5091 8.97841 11.255 8.97841 10.99L8.97741 1ZM7.01138 15C7.01159 15.217 6.94114 15.4282 6.81068 15.6016C6.68021 15.775 6.49683 15.9012 6.28826 15.9612C6.07969 16.0211 5.85728 16.0115 5.65466 15.9338C5.45204 15.8561 5.28024 15.7145 5.16522 15.5305L2.47991 12.8452C2.29259 12.6577 2.18741 12.4035 2.1875 12.1385C2.18759 11.8735 2.29296 11.6194 2.48041 11.4321C2.66786 11.2447 2.92205 11.1396 3.18706 11.1397C3.45206 11.1397 3.70617 11.2451 3.8935 11.4326L5.01238 12.5524V5.00999C5.01238 4.74504 5.11763 4.49094 5.30498 4.30359C5.49232 4.11624 5.74643 4.01099 6.01138 4.01099C6.27633 4.01099 6.53043 4.11624 6.71778 4.30359C6.90513 4.49094 7.01038 4.74504 7.01038 5.00999L7.01138 15Z" fill="#909090"/>
</svg>