<svg xmlns="http://www.w3.org/2000/svg" width="398" height="618" viewBox="0 0 398 618" fill="none">
<g filter="url(#filter0_f_1719_86837)">
<path fill-rule="evenodd" clip-rule="evenodd" d="M308.386 252.152C316.487 252.326 325.769 249.008 332.38 253.687C339.295 258.582 338.127 269.489 342.829 276.532C346.771 282.436 354.105 285.363 357.638 291.52C361.448 298.158 364.311 305.688 363.948 313.33C363.581 321.057 360.466 328.702 355.588 334.711C350.874 340.516 342.414 341.63 336.884 346.666C330.575 352.411 328.828 363.127 320.902 366.296C313.225 369.365 304.668 364.666 296.621 362.763C288.705 360.891 280.388 359.795 273.723 355.138C267.025 350.458 261.766 343.726 258.603 336.199C255.554 328.943 257.145 320.782 256.016 312.995C254.844 304.912 248.431 296.586 251.777 289.133C255.235 281.433 267.254 281.874 272.837 275.538C278.507 269.104 276.761 257.362 283.928 252.647C290.812 248.118 300.143 251.976 308.386 252.152Z" fill="#B2EA12"/>
</g>
<defs>
<filter id="filter0_f_1719_86837" x="0.820312" y="0.453125" width="613.156" height="616.856" filterUnits="userSpaceOnUse" color-interpolation-filters="sRGB">
<feFlood flood-opacity="0" result="BackgroundImageFix"/>
<feBlend mode="normal" in="SourceGraphic" in2="BackgroundImageFix" result="shape"/>
<feGaussianBlur stdDeviation="125" result="effect1_foregroundBlur_1719_86837"/>
</filter>
</defs>
</svg>