<svg width="25" height="24" viewBox="0 0 25 24" fill="none" xmlns="http://www.w3.org/2000/svg">
<path d="M12.5078 2C6.98281 2 2.50781 6.475 2.50781 12C2.50661 14.0992 3.16641 16.1454 4.39362 17.8484C5.62084 19.5515 7.35315 20.8249 9.34481 21.488C9.84481 21.575 10.0328 21.275 10.0328 21.012C10.0328 20.775 10.0198 19.988 10.0198 19.15C7.50781 19.613 6.85781 18.538 6.65781 17.975C6.54481 17.687 6.05781 16.8 5.63281 16.562C5.28281 16.375 4.78281 15.912 5.61981 15.9C6.40781 15.887 6.96981 16.625 7.15781 16.925C8.05781 18.437 9.49481 18.012 10.0698 17.75C10.1578 17.1 10.4198 16.663 10.7078 16.413C8.48281 16.163 6.15781 15.3 6.15781 11.475C6.15781 10.387 6.54481 9.488 7.18281 8.787C7.08281 8.537 6.73281 7.512 7.28281 6.137C7.28281 6.137 8.11981 5.875 10.0328 7.163C10.8469 6.93706 11.688 6.82334 12.5328 6.825C13.3828 6.825 14.2328 6.937 15.0328 7.162C16.9458 5.862 17.7828 6.138 17.7828 6.138C18.3328 7.513 17.9828 8.538 17.8828 8.788C18.5198 9.488 18.9078 10.375 18.9078 11.475C18.9078 15.313 16.5708 16.163 14.3448 16.413C14.7078 16.725 15.0208 17.325 15.0208 18.263C15.0208 19.6 15.0078 20.675 15.0078 21.013C15.0078 21.275 15.1958 21.587 15.6958 21.487C17.6807 20.8166 19.4053 19.5408 20.6271 17.8389C21.8489 16.1371 22.5063 14.095 22.5068 12C22.5068 6.475 18.0318 2 12.5068 2H12.5078Z" fill="#030303"/>
</svg>
