<svg width="1440" height="1016" viewBox="0 0 1440 1016" fill="none" xmlns="http://www.w3.org/2000/svg">
<g clip-path="url(#clip0_525_15486)">
<path d="M6.10352e-05 1007L1440 1007" stroke="#E8E9EF" stroke-width="0.5"/>
<path d="M6.10352e-05 997.5L1440 997.5" stroke="#E8E9EF" stroke-width="0.5"/>
<path d="M6.10352e-05 988L1440 988" stroke="#E8E9EF" stroke-width="0.5"/>
<path d="M6.10352e-05 978.5L1440 978.5" stroke="#E8E9EF" stroke-width="0.5"/>
<path d="M6.10352e-05 969L1440 969" stroke="#E8E9EF" stroke-width="0.5"/>
<path d="M6.10352e-05 959.5L1440 959.5" stroke="#E8E9EF" stroke-width="0.5"/>
<path d="M6.10352e-05 950L1440 950" stroke="#E8E9EF" stroke-width="0.5"/>
<path d="M6.10352e-05 940.5L1440 940.5" stroke="#E8E9EF" stroke-width="0.5"/>
<path d="M6.10352e-05 931L1440 931" stroke="#E8E9EF" stroke-width="0.5"/>
<path d="M6.10352e-05 921.5L1440 921.5" stroke="#E8E9EF" stroke-width="0.5"/>
<path d="M6.10352e-05 912L1440 912" stroke="#E8E9EF" stroke-width="0.5"/>
<path d="M6.10352e-05 902.5L1440 902.5" stroke="#E8E9EF" stroke-width="0.5"/>
<path d="M6.10352e-05 893L1440 893" stroke="#E8E9EF" stroke-width="0.5"/>
<path d="M6.10352e-05 883.5L1440 883.5" stroke="#E8E9EF" stroke-width="0.5"/>
<path d="M6.10352e-05 874L1440 874" stroke="#E8E9EF" stroke-width="0.5"/>
<path d="M6.10352e-05 864.5L1440 864.5" stroke="#E8E9EF" stroke-width="0.5"/>
<path d="M6.10352e-05 855L1440 855" stroke="#E8E9EF" stroke-width="0.5"/>
<path d="M6.10352e-05 845.5L1440 845.5" stroke="#E8E9EF" stroke-width="0.5"/>
<path d="M6.10352e-05 836L1440 836" stroke="#E8E9EF" stroke-width="0.5"/>
<path d="M6.10352e-05 826.5L1440 826.5" stroke="#E8E9EF" stroke-width="0.5"/>
<path d="M6.10352e-05 817L1440 817" stroke="#E8E9EF" stroke-width="0.5"/>
<path d="M6.10352e-05 807.5L1440 807.5" stroke="#E8E9EF" stroke-width="0.5"/>
<path d="M6.10352e-05 798L1440 798" stroke="#E8E9EF" stroke-width="0.5"/>
<path d="M6.10352e-05 788.5L1440 788.5" stroke="#E8E9EF" stroke-width="0.5"/>
<path d="M6.10352e-05 779L1440 779" stroke="#E8E9EF" stroke-width="0.5"/>
<path d="M6.10352e-05 769.5L1440 769.5" stroke="#E8E9EF" stroke-width="0.5"/>
<path d="M6.10352e-05 760L1440 760" stroke="#E8E9EF" stroke-width="0.5"/>
<path d="M6.10352e-05 750.5L1440 750.5" stroke="#E8E9EF" stroke-width="0.5"/>
<path d="M6.10352e-05 741L1440 741" stroke="#E8E9EF" stroke-width="0.5"/>
<path d="M6.10352e-05 731.5L1440 731.5" stroke="#E8E9EF" stroke-width="0.5"/>
<path d="M6.10352e-05 722L1440 722" stroke="#E8E9EF" stroke-width="0.5"/>
<path d="M6.10352e-05 712.5L1440 712.5" stroke="#E8E9EF" stroke-width="0.5"/>
<path d="M6.10352e-05 703L1440 703" stroke="#E8E9EF" stroke-width="0.5"/>
<path d="M6.10352e-05 693.5L1440 693.5" stroke="#E8E9EF" stroke-width="0.5"/>
<path d="M6.10352e-05 684L1440 684" stroke="#E8E9EF" stroke-width="0.5"/>
<path d="M6.10352e-05 674.5L1440 674.5" stroke="#E8E9EF" stroke-width="0.5"/>
<path d="M6.10352e-05 665L1440 665" stroke="#E8E9EF" stroke-width="0.5"/>
<path d="M6.10352e-05 655.5L1440 655.5" stroke="#E8E9EF" stroke-width="0.5"/>
<path d="M6.10352e-05 646L1440 646" stroke="#E8E9EF" stroke-width="0.5"/>
<path d="M6.10352e-05 636.5L1440 636.5" stroke="#E8E9EF" stroke-width="0.5"/>
<path d="M6.10352e-05 627L1440 627" stroke="#E8E9EF" stroke-width="0.5"/>
<path d="M6.10352e-05 617.5L1440 617.5" stroke="#E8E9EF" stroke-width="0.5"/>
<path d="M6.10352e-05 608L1440 608" stroke="#E8E9EF" stroke-width="0.5"/>
<path d="M6.10352e-05 598.5L1440 598.5" stroke="#E8E9EF" stroke-width="0.5"/>
<path d="M6.10352e-05 589L1440 589" stroke="#E8E9EF" stroke-width="0.5"/>
<path d="M6.10352e-05 579.5L1440 579.5" stroke="#E8E9EF" stroke-width="0.5"/>
<path d="M6.10352e-05 570L1440 570" stroke="#E8E9EF" stroke-width="0.5"/>
<path d="M6.10352e-05 560.5L1440 560.5" stroke="#E8E9EF" stroke-width="0.5"/>
<path d="M6.10352e-05 551L1440 551" stroke="#E8E9EF" stroke-width="0.5"/>
<path d="M6.10352e-05 541.5L1440 541.5" stroke="#E8E9EF" stroke-width="0.5"/>
<path d="M6.10352e-05 532L1440 532" stroke="#E8E9EF" stroke-width="0.5"/>
<path d="M6.10352e-05 522.5L1440 522.5" stroke="#E8E9EF" stroke-width="0.5"/>
<path d="M6.10352e-05 513L1440 513" stroke="#E8E9EF" stroke-width="0.5"/>
<path d="M6.10352e-05 503.5L1440 503.5" stroke="#E8E9EF" stroke-width="0.5"/>
<path d="M6.10352e-05 494L1440 494" stroke="#E8E9EF" stroke-width="0.5"/>
<path d="M6.10352e-05 484.5L1440 484.5" stroke="#E8E9EF" stroke-width="0.5"/>
<path d="M6.10352e-05 475L1440 475" stroke="#E8E9EF" stroke-width="0.5"/>
<path d="M6.10352e-05 465.5L1440 465.5" stroke="#E8E9EF" stroke-width="0.5"/>
<path d="M6.10352e-05 456L1440 456" stroke="#E8E9EF" stroke-width="0.5"/>
<path d="M6.10352e-05 446.5L1440 446.5" stroke="#E8E9EF" stroke-width="0.5"/>
<path d="M6.10352e-05 437L1440 437" stroke="#E8E9EF" stroke-width="0.5"/>
<path d="M6.10352e-05 427.5L1440 427.5" stroke="#E8E9EF" stroke-width="0.5"/>
<path d="M6.10352e-05 418L1440 418" stroke="#E8E9EF" stroke-width="0.5"/>
<path d="M6.10352e-05 408.5L1440 408.5" stroke="#E8E9EF" stroke-width="0.5"/>
<path d="M6.10352e-05 399L1440 399" stroke="#E8E9EF" stroke-width="0.5"/>
<path d="M6.10352e-05 389.5L1440 389.5" stroke="#E8E9EF" stroke-width="0.5"/>
<path d="M6.10352e-05 380L1440 380" stroke="#E8E9EF" stroke-width="0.5"/>
<path d="M6.10352e-05 370.5L1440 370.5" stroke="#E8E9EF" stroke-width="0.5"/>
<path d="M6.10352e-05 361L1440 361" stroke="#E8E9EF" stroke-width="0.5"/>
<path d="M6.10352e-05 351.5L1440 351.5" stroke="#E8E9EF" stroke-width="0.5"/>
<path d="M6.10352e-05 342L1440 342" stroke="#E8E9EF" stroke-width="0.5"/>
<path d="M6.10352e-05 332.5L1440 332.5" stroke="#E8E9EF" stroke-width="0.5"/>
<path d="M6.10352e-05 323L1440 323" stroke="#E8E9EF" stroke-width="0.5"/>
<path d="M6.10352e-05 313.5L1440 313.5" stroke="#E8E9EF" stroke-width="0.5"/>
<path d="M0 304L1440 304" stroke="#E8E9EF" stroke-width="0.5"/>
<path d="M0 294.5L1440 294.5" stroke="#E8E9EF" stroke-width="0.5"/>
<path d="M0 285L1440 285" stroke="#E8E9EF" stroke-width="0.5"/>
<path d="M0 275.5L1440 275.5" stroke="#E8E9EF" stroke-width="0.5"/>
<path d="M0 266L1440 266" stroke="#E8E9EF" stroke-width="0.5"/>
<path d="M0 256.5L1440 256.5" stroke="#E8E9EF" stroke-width="0.5"/>
<path d="M0 247L1440 247" stroke="#E8E9EF" stroke-width="0.5"/>
<path d="M0 237.5L1440 237.5" stroke="#E8E9EF" stroke-width="0.5"/>
<path d="M0 228L1440 228" stroke="#E8E9EF" stroke-width="0.5"/>
<path d="M0 218.5L1440 218.5" stroke="#E8E9EF" stroke-width="0.5"/>
<path d="M0 209L1440 209" stroke="#E8E9EF" stroke-width="0.5"/>
<path d="M0 199.5L1440 199.5" stroke="#E8E9EF" stroke-width="0.5"/>
<path d="M0 190L1440 190" stroke="#E8E9EF" stroke-width="0.5"/>
<path d="M0 180.5L1440 180.5" stroke="#E8E9EF" stroke-width="0.5"/>
<path d="M0 171L1440 171" stroke="#E8E9EF" stroke-width="0.5"/>
<path d="M0 161.5L1440 161.5" stroke="#E8E9EF" stroke-width="0.5"/>
<path d="M0 152L1440 152" stroke="#E8E9EF" stroke-width="0.5"/>
<path d="M0 142.5L1440 142.5" stroke="#E8E9EF" stroke-width="0.5"/>
<path d="M0 133L1440 133" stroke="#E8E9EF" stroke-width="0.5"/>
<path d="M0 123.5L1440 123.5" stroke="#E8E9EF" stroke-width="0.5"/>
<path d="M0 114L1440 114" stroke="#E8E9EF" stroke-width="0.5"/>
<path d="M0 104.5L1440 104.5" stroke="#E8E9EF" stroke-width="0.5"/>
<path d="M0 95L1440 94.9999" stroke="#E8E9EF" stroke-width="0.5"/>
<path d="M0 85.5L1440 85.4999" stroke="#E8E9EF" stroke-width="0.5"/>
<path d="M0 76L1440 75.9999" stroke="#E8E9EF" stroke-width="0.5"/>
<path d="M0 66.5L1440 66.4999" stroke="#E8E9EF" stroke-width="0.5"/>
<path d="M0 57L1440 56.9999" stroke="#E8E9EF" stroke-width="0.5"/>
<path d="M0 47.5L1440 47.4999" stroke="#E8E9EF" stroke-width="0.5"/>
<path d="M0 38L1440 37.9999" stroke="#E8E9EF" stroke-width="0.5"/>
<path d="M0 28.5L1440 28.4999" stroke="#E8E9EF" stroke-width="0.5"/>
<path d="M0 19L1440 18.9999" stroke="#E8E9EF" stroke-width="0.5"/>
<path d="M0 9.5L1440 9.49994" stroke="#E8E9EF" stroke-width="0.5"/>
<path d="M0 0L1440 -6.29444e-05" stroke="#E8E9EF" stroke-width="0.5"/>
</g>
<defs>
<clipPath id="clip0_525_15486">
<rect width="1440" height="1016" fill="white"/>
</clipPath>
</defs>
</svg>
