<svg xmlns="http://www.w3.org/2000/svg" width="21" height="21" viewBox="0 0 21 21" fill="none">
<path d="M10.0195 3C6.05039 3 2.83203 6.21836 2.83203 10.1875C2.83203 14.1566 6.05039 17.375 10.0195 17.375C13.9887 17.375 17.207 14.1566 17.207 10.1875C17.207 6.21836 13.9887 3 10.0195 3Z" stroke="#909090" stroke-width="1.25" stroke-miterlimit="10"/>
<path d="M8.92578 9.09375H10.1758V13.625" stroke="#909090" stroke-width="1.25" stroke-linecap="round" stroke-linejoin="round"/>
<path d="M8.45703 13.7812H11.8945" stroke="#909090" stroke-width="1.25" stroke-miterlimit="10" stroke-linecap="round"/>
<path d="M10.0195 5.57812C9.81866 5.57812 9.6223 5.63769 9.45528 5.74929C9.28826 5.86089 9.15809 6.01951 9.08122 6.20509C9.00435 6.39067 8.98423 6.59488 9.02342 6.79189C9.06261 6.9889 9.15934 7.16987 9.30138 7.31191C9.44341 7.45394 9.62438 7.55067 9.82139 7.58986C10.0184 7.62905 10.2226 7.60894 10.4082 7.53207C10.5938 7.4552 10.7524 7.32502 10.864 7.158C10.9756 6.99098 11.0352 6.79462 11.0352 6.59375C11.0352 6.32439 10.9282 6.06606 10.7377 5.87559C10.5472 5.68513 10.2889 5.57812 10.0195 5.57812Z" fill="#909090"/>
</svg>