<svg width="120" height="30" viewBox="0 0 120 30" fill="none" xmlns="http://www.w3.org/2000/svg">
<path fill-rule="evenodd" clip-rule="evenodd" d="M19.1631 2.99056H4.52941V17.637H2.42617V27.0095H16.9832C19.663 27.0095 21.8355 24.837 21.8355 22.1571V12.4525L21.8353 12.4107H23.7097V7.01018C23.7097 4.33031 22.8215 2.99056 19.1631 2.99056ZM24.2617 14.5012H26.1315V17.7377C26.1344 17.6524 26.1359 17.5668 26.1359 17.4809V7.77618C26.1359 3.75638 24.5636 0.564392 18.9241 0.564392H1.94092V7.7993V15.5465H0V29.4356H16.9832C21.003 29.4356 24.2617 26.1769 24.2617 22.1571V14.5012ZM18.8147 5.40634C18.8594 5.41791 18.9039 5.4299 18.9482 5.4423H18.8147V5.40634Z" fill="#0C0E15"/>
<path d="M5.92317 19.0307V5.09388V4.39703H20.0342C22.299 4.39703 22.299 5.79072 22.299 6.83598V11.017H20.3826V21.6439C20.3826 24.4312 18.4663 25.6507 16.55 25.6507H3.83264V19.0307H5.92317Z" fill="#8E95AF"/>
<path d="M117.228 24.7551C115.87 24.7551 114.864 24.3747 114.212 23.6138C113.56 22.8349 113.234 21.8204 113.234 20.5705V13.0435H110.625C110.625 12.337 110.77 11.8117 111.06 11.4675C111.35 11.1052 111.739 10.924 112.229 10.924H113.288V8.45127C113.288 7.79912 113.506 7.32812 113.94 7.03827C114.375 6.74842 115.036 6.6035 115.924 6.6035V10.924H119.538C119.538 11.6486 119.384 12.183 119.076 12.5272C118.786 12.8714 118.324 13.0435 117.69 13.0435H115.978V20.4618C115.978 21.1502 116.105 21.6483 116.359 21.9563C116.612 22.2461 117.065 22.3911 117.717 22.3911C118.352 22.3911 118.967 22.219 119.565 21.8748C119.855 22.1646 120 22.5269 120 22.9617C120 23.4327 119.755 23.8493 119.266 24.2117C118.777 24.574 118.098 24.7551 117.228 24.7551Z" fill="#2C2F3E"/>
<path d="M98.1051 12.8805C98.1051 11.4131 98.9746 10.6795 100.714 10.6795V12.3914C100.533 12.5725 100.333 12.8261 100.116 13.1522L100.252 13.2609C100.795 12.4819 101.493 11.857 102.344 11.386C103.214 10.915 104.156 10.6795 105.17 10.6795C106.619 10.6795 107.77 11.1233 108.621 12.0109C109.473 12.8805 109.898 14.0036 109.898 15.3804V22.9073C109.898 23.5414 109.672 24.0124 109.219 24.3203C108.784 24.6102 108.114 24.7551 107.208 24.7551V15.7065C107.208 14.9094 106.973 14.2663 106.502 13.7772C106.031 13.2881 105.342 13.0435 104.436 13.0435C103.802 13.0435 103.205 13.1884 102.643 13.4783C102.081 13.75 101.638 14.1214 101.312 14.5924C100.985 15.0634 100.822 15.5797 100.822 16.1412V22.9073C100.822 23.5595 100.596 24.0305 100.143 24.3203C99.7083 24.6102 99.029 24.7551 98.1051 24.7551V12.8805Z" fill="#2C2F3E"/>
<path d="M91.0573 24.7551C89.9523 24.7551 88.9559 24.5377 88.0683 24.103C87.1806 23.6682 86.4832 23.0704 85.9759 22.3095C85.4687 21.5487 85.2151 20.6973 85.2151 19.7553V15.8695C85.2151 14.8913 85.4778 14.0127 86.0031 13.2337C86.5466 12.4367 87.2621 11.8117 88.1498 11.3588C89.0374 10.9059 90.0066 10.6795 91.0573 10.6795C92.108 10.6795 93.0681 10.8968 93.9376 11.3316C94.8072 11.7664 95.4956 12.3732 96.0028 13.1522C96.51 13.9131 96.7637 14.7826 96.7637 15.7608V17.4456C96.7637 17.7535 96.6368 18.0252 96.3832 18.2607C96.1477 18.4781 95.8579 18.5868 95.5137 18.5868H87.8509V19.6194C87.8509 20.4889 88.1226 21.1954 88.6661 21.7389C89.2095 22.2642 90.0066 22.5269 91.0573 22.5269C92.108 22.5269 92.896 22.3005 93.4214 21.8476C93.9648 21.3766 94.2366 20.7607 94.2366 19.9998C94.8887 19.9455 95.4231 20.0542 95.8398 20.3259C96.2564 20.5795 96.4647 20.969 96.4647 21.4943C96.4647 22.0559 96.2111 22.5903 95.7039 23.0976C95.2148 23.5867 94.5536 23.9852 93.7203 24.2932C92.9051 24.6011 92.0174 24.7551 91.0573 24.7551ZM94.2909 16.5488V15.7608C94.2909 14.9094 93.992 14.221 93.3942 13.6957C92.7964 13.1522 92.0174 12.8805 91.0573 12.8805C90.0972 12.8805 89.3182 13.1522 88.7204 13.6957C88.1407 14.221 87.8509 14.9094 87.8509 15.7608V16.5488H94.2909Z" fill="#2C2F3E"/>
<path d="M78.6753 24.7551C77.5521 24.7551 76.5467 24.5558 75.659 24.1573C74.7895 23.7407 74.1102 23.17 73.6211 22.4454C73.1319 21.7027 72.8874 20.8603 72.8874 19.9183V15.7065C72.8874 14.7282 73.1229 13.8587 73.5939 13.0979C74.083 12.337 74.7623 11.7483 75.6319 11.3316C76.5195 10.8968 77.5249 10.6795 78.6481 10.6795C79.6988 10.6795 80.6317 10.8334 81.4469 11.1414C82.2621 11.4312 82.8961 11.8479 83.349 12.3914C83.82 12.9348 84.0555 13.5598 84.0555 14.2663C84.0555 14.7735 83.8472 15.1811 83.4305 15.4891C83.0139 15.7789 82.4885 15.9057 81.8545 15.8695C81.8545 15.0362 81.5556 14.3569 80.9578 13.8315C80.3781 13.3062 79.6263 13.0435 78.7024 13.0435C77.7785 13.0435 77.0268 13.2971 76.4471 13.8044C75.8674 14.3116 75.5775 14.9728 75.5775 15.788V19.7553C75.5775 20.5342 75.8674 21.1683 76.4471 21.6574C77.0449 22.1465 77.8148 22.3911 78.7568 22.3911C79.6807 22.3911 80.4324 22.1284 81.0121 21.603C81.61 21.0777 81.9089 20.4074 81.9089 19.5922C82.561 19.5379 83.0954 19.6556 83.5121 19.9455C83.9287 20.2353 84.137 20.6339 84.137 21.1411C84.137 21.8476 83.9015 22.4726 83.4305 23.016C82.9777 23.5595 82.3346 23.9852 81.5013 24.2932C80.668 24.6011 79.7259 24.7551 78.6753 24.7551Z" fill="#2C2F3E"/>
<path d="M66.0455 24.7551C65.0492 24.7551 64.1253 24.6193 63.2739 24.3475C62.4406 24.0577 61.7794 23.6501 61.2903 23.1247C60.8011 22.5813 60.5566 21.9653 60.5566 21.277C60.5566 20.3531 61.1634 19.864 62.3772 19.8096C62.5402 20.7516 62.9478 21.4581 63.6 21.9291C64.2702 22.382 65.0945 22.6084 66.0727 22.6084C67.0872 22.6084 67.8752 22.4635 68.4368 22.1737C68.9984 21.8838 69.2791 21.4491 69.2791 20.8694C69.2791 20.2897 69.0255 19.8368 68.5183 19.5107C68.0292 19.1846 67.1053 18.8767 65.7466 18.5868C64.4967 18.297 63.5094 17.9981 62.7848 17.6901C62.0602 17.3822 61.5167 16.9746 61.1544 16.4673C60.7921 15.942 60.6109 15.2717 60.6109 14.4565C60.6109 13.7319 60.8283 13.0888 61.2631 12.5272C61.6978 11.9475 62.3047 11.4947 63.0837 11.1686C63.8808 10.8425 64.7956 10.6795 65.8282 10.6795C66.8064 10.6795 67.7031 10.8063 68.5183 11.0599C69.3516 11.3135 70.0128 11.6849 70.5019 12.174C71.0092 12.645 71.2628 13.1975 71.2628 13.8315C71.2628 14.7192 70.5925 15.1902 69.252 15.2445C69.1614 14.4837 68.8263 13.8859 68.2466 13.4511C67.685 13.0163 66.906 12.799 65.9097 12.799C65.0945 12.799 64.4333 12.9529 63.926 13.2609C63.4188 13.5507 63.1652 13.9402 63.1652 14.4293C63.1652 14.9366 63.3916 15.3261 63.8445 15.5978C64.3155 15.8514 65.1126 16.105 66.2358 16.3586C68.1741 16.7572 69.5962 17.3006 70.5019 17.989C71.4077 18.6593 71.8606 19.6103 71.8606 20.8422C71.8606 22.074 71.3443 23.0342 70.3117 23.7225C69.2973 24.4109 67.8752 24.7551 66.0455 24.7551Z" fill="#2C2F3E"/>
<path d="M53.862 24.7551C52.7569 24.7551 51.7606 24.5377 50.8729 24.103C49.9853 23.6682 49.2879 23.0704 48.7806 22.3095C48.2734 21.5487 48.0198 20.6973 48.0198 19.7553V15.8695C48.0198 14.8913 48.2824 14.0127 48.8078 13.2337C49.3513 12.4367 50.0668 11.8117 50.9545 11.3588C51.8421 10.9059 52.8113 10.6795 53.862 10.6795C54.9127 10.6795 55.8728 10.8968 56.7423 11.3316C57.6119 11.7664 58.3003 12.3732 58.8075 13.1522C59.3147 13.9131 59.5683 14.7826 59.5683 15.7608V17.4456C59.5683 17.7535 59.4415 18.0252 59.1879 18.2607C58.9524 18.4781 58.6626 18.5868 58.3184 18.5868H50.6556V19.6194C50.6556 20.4889 50.9273 21.1954 51.4708 21.7389C52.0142 22.2642 52.8113 22.5269 53.862 22.5269C54.9127 22.5269 55.7007 22.3005 56.226 21.8476C56.7695 21.3766 57.0412 20.7607 57.0412 19.9998C57.6934 19.9455 58.2278 20.0542 58.6445 20.3259C59.0611 20.5795 59.2694 20.969 59.2694 21.4943C59.2694 22.0559 59.0158 22.5903 58.5086 23.0976C58.0195 23.5867 57.3583 23.9852 56.525 24.2932C55.7098 24.6011 54.8221 24.7551 53.862 24.7551ZM57.0956 16.5488V15.7608C57.0956 14.9094 56.7967 14.221 56.1989 13.6957C55.6011 13.1522 54.8221 12.8805 53.862 12.8805C52.9019 12.8805 52.1229 13.1522 51.5251 13.6957C50.9454 14.221 50.6556 14.9094 50.6556 15.7608V16.5488H57.0956Z" fill="#2C2F3E"/>
<path d="M39.7152 24.7551C38.7008 24.7551 37.795 24.5558 36.9979 24.1573C36.2189 23.7588 35.603 23.1972 35.1501 22.4726C34.7154 21.748 34.498 20.9147 34.498 19.9727V15.4347C34.498 14.5109 34.7244 13.6866 35.1773 12.962C35.6302 12.2374 36.2642 11.6758 37.0794 11.2773C37.9127 10.8787 38.8457 10.6795 39.8783 10.6795C40.6572 10.6795 41.409 10.8425 42.1336 11.1686C42.8764 11.4947 43.5104 11.9294 44.0357 12.4729L44.1173 12.337C44.0086 12.1921 43.8184 12.0019 43.5466 11.7664V7.22848C43.5466 6.59444 43.7731 6.10532 44.2259 5.76113C44.6788 5.41694 45.3672 5.24484 46.2911 5.24484V22.69C46.2911 23.3059 46.0828 23.8041 45.6661 24.1845C45.2676 24.5649 44.6335 24.7551 43.764 24.7551V23.2334C44.0176 22.9073 44.1897 22.6718 44.2803 22.5269L44.1716 22.4182C43.61 23.161 42.976 23.7407 42.2695 24.1573C41.563 24.5558 40.7116 24.7551 39.7152 24.7551ZM40.3945 22.3911C41.3003 22.3911 42.0521 22.1556 42.6499 21.6846C43.2658 21.2136 43.5738 20.6339 43.5738 19.9455V15.4619C43.5738 14.7735 43.2749 14.2029 42.6771 13.75C42.0974 13.279 41.3275 13.0435 40.3674 13.0435C39.3529 13.0435 38.5649 13.27 38.0033 13.7228C37.4599 14.1576 37.1881 14.7735 37.1881 15.5706V19.8096C37.1881 20.6429 37.4599 21.286 38.0033 21.7389C38.5649 22.1737 39.362 22.3911 40.3945 22.3911Z" fill="#2C2F3E"/>
</svg>
