<svg width="22" height="22" viewBox="0 0 22 22" fill="none" xmlns="http://www.w3.org/2000/svg">
<path d="M18.9254 2.45117L12.0547 7.55412L13.3252 4.54345L18.9254 2.45117Z" fill="#E2761B" stroke="#E2761B" stroke-width="0.0268536" stroke-linecap="round" stroke-linejoin="round"/>
<path d="M3.07031 2.45117L9.88576 7.60246L8.67734 4.54345L3.07031 2.45117Z" fill="#E4761B" stroke="#E4761B" stroke-width="0.0268536" stroke-linecap="round" stroke-linejoin="round"/>
<path d="M16.4549 14.2803L14.625 17.0838L18.5403 18.161L19.6658 14.3424L16.4549 14.2803Z" fill="#E4761B" stroke="#E4761B" stroke-width="0.0268536" stroke-linecap="round" stroke-linejoin="round"/>
<path d="M2.34375 14.3424L3.46239 18.161L7.37765 17.0838L5.54777 14.2803L2.34375 14.3424Z" fill="#E4761B" stroke="#E4761B" stroke-width="0.0268536" stroke-linecap="round" stroke-linejoin="round"/>
<path d="M7.15352 9.54315L6.0625 11.1935L9.95013 11.3661L9.81203 7.18848L7.15352 9.54315Z" fill="#E4761B" stroke="#E4761B" stroke-width="0.0268536" stroke-linecap="round" stroke-linejoin="round"/>
<path d="M14.8453 9.54266L12.1523 7.13965L12.0625 11.3656L15.9432 11.193L14.8453 9.54266Z" fill="#E4761B" stroke="#E4761B" stroke-width="0.0268536" stroke-linecap="round" stroke-linejoin="round"/>
<path d="M7.375 17.0839L9.70896 15.9445L7.69264 14.3701L7.375 17.0839Z" fill="#E4761B" stroke="#E4761B" stroke-width="0.0268536" stroke-linecap="round" stroke-linejoin="round"/>
<path d="M12.2891 15.9445L14.6299 17.0839L14.3054 14.3701L12.2891 15.9445Z" fill="#E4761B" stroke="#E4761B" stroke-width="0.0268536" stroke-linecap="round" stroke-linejoin="round"/>
<path d="M14.6221 17.0837L12.2812 15.9443L12.4677 17.4704L12.447 18.1126L14.6221 17.0837Z" fill="#D7C1B3" stroke="#D7C1B3" stroke-width="0.0268536" stroke-linecap="round" stroke-linejoin="round"/>
<path d="M7.375 17.0837L9.55014 18.1126L9.53633 17.4704L9.70896 15.9443L7.375 17.0837Z" fill="#D7C1B3" stroke="#D7C1B3" stroke-width="0.0268536" stroke-linecap="round" stroke-linejoin="round"/>
<path d="M9.58789 13.3617L7.64062 12.7885L9.01476 12.1602L9.58789 13.3617Z" fill="#233447" stroke="#233447" stroke-width="0.0268536" stroke-linecap="round" stroke-linejoin="round"/>
<path d="M12.4062 13.3617L12.9794 12.1602L14.3604 12.7885L12.4062 13.3617Z" fill="#233447" stroke="#233447" stroke-width="0.0268536" stroke-linecap="round" stroke-linejoin="round"/>
<path d="M7.37676 17.0838L7.70821 14.2803L5.54688 14.3424L7.37676 17.0838Z" fill="#CD6116" stroke="#CD6116" stroke-width="0.0268536" stroke-linecap="round" stroke-linejoin="round"/>
<path d="M14.2969 14.2803L14.6283 17.0838L16.4582 14.3424L14.2969 14.2803Z" fill="#CD6116" stroke="#CD6116" stroke-width="0.0268536" stroke-linecap="round" stroke-linejoin="round"/>
<path d="M15.9432 11.1934L12.0625 11.366L12.4216 13.3616L12.9947 12.1601L14.3757 12.7885L15.9432 11.1934Z" fill="#CD6116" stroke="#CD6116" stroke-width="0.0268536" stroke-linecap="round" stroke-linejoin="round"/>
<path d="M7.63689 12.7885L9.01793 12.1601L9.58416 13.3616L9.95013 11.366L6.0625 11.1934L7.63689 12.7885Z" fill="#CD6116" stroke="#CD6116" stroke-width="0.0268536" stroke-linecap="round" stroke-linejoin="round"/>
<path d="M6.0625 11.1934L7.69213 14.3698L7.63689 12.7885L6.0625 11.1934Z" fill="#E4751F" stroke="#E4751F" stroke-width="0.0268536" stroke-linecap="round" stroke-linejoin="round"/>
<path d="M14.3659 12.7885L14.2969 14.3698L15.9334 11.1934L14.3659 12.7885Z" fill="#E4751F" stroke="#E4751F" stroke-width="0.0268536" stroke-linecap="round" stroke-linejoin="round"/>
<path d="M9.95191 11.3662L9.58594 13.3618L10.0417 15.7165L10.1453 12.6161L9.95191 11.3662Z" fill="#E4751F" stroke="#E4751F" stroke-width="0.0268536" stroke-linecap="round" stroke-linejoin="round"/>
<path d="M12.0536 11.3662L11.8672 12.6091L11.9501 15.7165L12.4127 13.3618L12.0536 11.3662Z" fill="#E4751F" stroke="#E4751F" stroke-width="0.0268536" stroke-linecap="round" stroke-linejoin="round"/>
<path d="M12.4158 13.3622L11.9531 15.7169L12.2846 15.9447L14.3009 14.3704L14.3699 12.7891L12.4158 13.3622Z" fill="#F6851B" stroke="#F6851B" stroke-width="0.0268536" stroke-linecap="round" stroke-linejoin="round"/>
<path d="M7.64062 12.7891L7.69587 14.3704L9.71219 15.9447L10.0436 15.7169L9.58789 13.3622L7.64062 12.7891Z" fill="#F6851B" stroke="#F6851B" stroke-width="0.0268536" stroke-linecap="round" stroke-linejoin="round"/>
<path d="M12.4503 18.1119L12.471 17.4697L12.2984 17.3178H9.69515L9.53633 17.4697L9.55014 18.1119L7.375 17.083L8.13457 17.7045L9.67444 18.7748H12.3191L13.8659 17.7045L14.6255 17.083L12.4503 18.1119Z" fill="#C0AD9E" stroke="#C0AD9E" stroke-width="0.0268536" stroke-linecap="round" stroke-linejoin="round"/>
<path d="M12.2873 15.9437L11.9559 15.7158H10.0431L9.71169 15.9437L9.53906 17.4697L9.69788 17.3178H12.3011L12.4738 17.4697L12.2873 15.9437Z" fill="#161616" stroke="#161616" stroke-width="0.0268536" stroke-linecap="round" stroke-linejoin="round"/>
<path d="M19.2141 7.88557L19.801 5.06825L18.9241 2.45117L12.2812 7.38149L14.8362 9.54282L18.4476 10.5993L19.2486 9.66712L18.9033 9.41853L19.4558 8.91445L19.0276 8.583L19.5801 8.16178L19.2141 7.88557Z" fill="#763D16" stroke="#763D16" stroke-width="0.0268536" stroke-linecap="round" stroke-linejoin="round"/>
<path d="M2.19531 5.06825L2.78226 7.88557L2.40937 8.16178L2.96179 8.583L2.54057 8.91445L3.09299 9.41853L2.74773 9.66712L3.54183 10.5993L7.15325 9.54282L9.70818 7.38149L3.06537 2.45117L2.19531 5.06825Z" fill="#763D16" stroke="#763D16" stroke-width="0.0268536" stroke-linecap="round" stroke-linejoin="round"/>
<path d="M18.4469 10.5995L14.8355 9.54297L15.9334 11.1933L14.2969 14.3697L16.4513 14.3421H19.6622L18.4469 10.5995Z" fill="#F6851B" stroke="#F6851B" stroke-width="0.0268536" stroke-linecap="round" stroke-linejoin="round"/>
<path d="M7.15668 9.54297L3.54526 10.5995L2.34375 14.3421H5.54777L7.69529 14.3697L6.06566 11.1933L7.15668 9.54297Z" fill="#F6851B" stroke="#F6851B" stroke-width="0.0268536" stroke-linecap="round" stroke-linejoin="round"/>
<path d="M12.0554 11.3663L12.2833 7.38199L13.3329 4.54395H8.67188L9.70766 7.38199L9.94934 11.3663L10.0322 12.623L10.0391 15.7166H11.9518L11.9657 12.623L12.0554 11.3663Z" fill="#F6851B" stroke="#F6851B" stroke-width="0.0268536" stroke-linecap="round" stroke-linejoin="round"/>
</svg>
