<svg xmlns="http://www.w3.org/2000/svg" width="343" height="605" viewBox="0 0 343 605" fill="none">
<g filter="url(#filter0_f_1719_86836)">
<path fill-rule="evenodd" clip-rule="evenodd" d="M46.5423 250.049C55.7267 250.964 57.5417 264.354 64.7489 270.104C70.8573 274.977 82.9583 273.294 85.0872 280.8C87.335 288.725 72.8621 294.095 73.8722 302.269C75.5354 315.729 95.2061 324.524 92.1225 337.732C89.5758 348.641 73.2657 349.437 62.2968 351.851C51.8911 354.141 40.3775 356.203 30.9827 351.189C21.9553 346.37 19.948 334.728 14.283 326.223C9.47928 319.011 1.41923 313.567 0.212668 304.993C-0.992786 296.428 3.10984 287.97 7.88325 280.748C12.2112 274.199 19.6831 271.11 25.8356 266.225C32.8363 260.665 37.6371 249.161 46.5423 250.049Z" fill="#BCFD00"/>
</g>
<defs>
<filter id="filter0_f_1719_86836" x="-250" y="0" width="592.449" height="604.283" filterUnits="userSpaceOnUse" color-interpolation-filters="sRGB">
<feFlood flood-opacity="0" result="BackgroundImageFix"/>
<feBlend mode="normal" in="SourceGraphic" in2="BackgroundImageFix" result="shape"/>
<feGaussianBlur stdDeviation="125" result="effect1_foregroundBlur_1719_86836"/>
</filter>
</defs>
</svg>