<svg width="72" height="73" viewBox="0 0 72 73" fill="none" xmlns="http://www.w3.org/2000/svg">
<rect x="0.5" y="1" width="71" height="71" rx="35.5" stroke="#826CFF"/>
<path d="M35.9987 9.8335C21.2787 9.8335 9.33203 21.7802 9.33203 36.5002C9.33203 51.2201 21.2787 63.1668 35.9987 63.1668C50.7187 63.1668 62.6653 51.2201 62.6653 36.5002C62.6653 21.7802 50.7187 9.8335 35.9987 9.8335ZM35.9987 57.8335C24.2387 57.8335 14.6654 48.2601 14.6654 36.5002C14.6654 24.7402 24.2387 15.1668 35.9987 15.1668C47.7587 15.1668 57.332 24.7402 57.332 36.5002C57.332 48.2601 47.7587 57.8335 35.9987 57.8335ZM48.2387 24.7135L30.6654 42.2868L23.7587 35.4068L19.9987 39.1668L30.6654 49.8335L51.9987 28.5002L48.2387 24.7135Z" fill="#826CFF"/>
</svg>
