<svg width="36" height="36" viewBox="0 0 36 36" fill="none" xmlns="http://www.w3.org/2000/svg">
<rect width="36" height="36" rx="18" fill="#EEF8F4"/>
<path d="M18 9C13.032 9 9 13.032 9 18C9 22.968 13.032 27 18 27C22.968 27 27 22.968 27 18C27 13.032 22.968 9 18 9ZM18 25.2C14.031 25.2 10.8 21.969 10.8 18C10.8 14.031 14.031 10.8 18 10.8C21.969 10.8 25.2 14.031 25.2 18C25.2 21.969 21.969 25.2 18 25.2ZM22.131 14.022L16.2 19.953L13.869 17.631L12.6 18.9L16.2 22.5L23.4 15.3L22.131 14.022Z" fill="#26A989"/>
</svg>
