<svg width="25" height="24" viewBox="0 0 25 24" fill="none" xmlns="http://www.w3.org/2000/svg">
<path d="M22.5078 5.80021C21.7561 6.1263 20.9612 6.34187 20.1478 6.44021C21.006 5.92753 21.6491 5.12099 21.9578 4.17021C21.1514 4.65027 20.2686 4.98851 19.3478 5.17021C18.7324 4.50278 17.9128 4.05851 17.0176 3.90706C16.1225 3.75562 15.2024 3.90557 14.4016 4.3334C13.6008 4.76123 12.9647 5.44274 12.5931 6.27105C12.2214 7.09935 12.1351 8.0276 12.3478 8.91021C10.7172 8.82774 9.12225 8.40316 7.66647 7.66407C6.21068 6.92498 4.92666 5.8879 3.89781 4.62021C3.53695 5.25038 3.34733 5.96403 3.34781 6.69021C3.34653 7.36459 3.51203 8.02883 3.82957 8.62377C4.14711 9.21872 4.60683 9.72592 5.16781 10.1002C4.51579 10.0825 3.8777 9.90751 3.30781 9.59021V9.64021C3.3127 10.5851 3.64381 11.4993 4.24513 12.2282C4.84645 12.957 5.68107 13.4559 6.60781 13.6402C6.25107 13.7488 5.88069 13.806 5.50781 13.8102C5.2497 13.8072 4.99223 13.7838 4.73781 13.7402C5.00172 14.553 5.51244 15.2634 6.19889 15.7724C6.88534 16.2814 7.71339 16.5638 8.56781 16.5802C7.12502 17.7155 5.3437 18.3351 3.50781 18.3402C3.17355 18.3413 2.83955 18.3213 2.50781 18.2802C4.38224 19.4905 6.56663 20.1329 8.79781 20.1302C10.3375 20.1462 11.8649 19.8552 13.2909 19.2743C14.7169 18.6934 16.0128 17.8341 17.103 16.7467C18.1932 15.6593 19.0558 14.3656 19.6404 12.9411C20.225 11.5166 20.5199 9.98994 20.5078 8.45021V7.92021C21.2925 7.33502 21.9693 6.61763 22.5078 5.80021Z" fill="#030303"/>
</svg>
