<svg width="1425" height="1024" viewBox="0 0 1425 1024" fill="none" xmlns="http://www.w3.org/2000/svg">
<g clip-path="url(#clip0_525_15595)">
<path d="M0 0V1024" stroke="#E8E9EF" stroke-width="0.5"/>
<path d="M9.5 0V1024" stroke="#E8E9EF" stroke-width="0.5"/>
<path d="M19 0V1024" stroke="#E8E9EF" stroke-width="0.5"/>
<path d="M28.5 0V1024" stroke="#E8E9EF" stroke-width="0.5"/>
<path d="M38 0V1024" stroke="#E8E9EF" stroke-width="0.5"/>
<path d="M47.5 0V1024" stroke="#E8E9EF" stroke-width="0.5"/>
<path d="M57 0V1024" stroke="#E8E9EF" stroke-width="0.5"/>
<path d="M66.5 0V1024" stroke="#E8E9EF" stroke-width="0.5"/>
<path d="M76 0V1024" stroke="#E8E9EF" stroke-width="0.5"/>
<path d="M85.5 0V1024" stroke="#E8E9EF" stroke-width="0.5"/>
<path d="M95 0V1024" stroke="#E8E9EF" stroke-width="0.5"/>
<path d="M104.5 0V1024" stroke="#E8E9EF" stroke-width="0.5"/>
<path d="M114 0V1024" stroke="#E8E9EF" stroke-width="0.5"/>
<path d="M123.5 0V1024" stroke="#E8E9EF" stroke-width="0.5"/>
<path d="M133 0V1024" stroke="#E8E9EF" stroke-width="0.5"/>
<path d="M142.5 0V1024" stroke="#E8E9EF" stroke-width="0.5"/>
<path d="M152 0V1024" stroke="#E8E9EF" stroke-width="0.5"/>
<path d="M161.5 0V1024" stroke="#E8E9EF" stroke-width="0.5"/>
<path d="M171 0V1024" stroke="#E8E9EF" stroke-width="0.5"/>
<path d="M180.5 0V1024" stroke="#E8E9EF" stroke-width="0.5"/>
<path d="M190 0V1024" stroke="#E8E9EF" stroke-width="0.5"/>
<path d="M199.5 0V1024" stroke="#E8E9EF" stroke-width="0.5"/>
<path d="M209 0V1024" stroke="#E8E9EF" stroke-width="0.5"/>
<path d="M218.5 0V1024" stroke="#E8E9EF" stroke-width="0.5"/>
<path d="M228 0V1024" stroke="#E8E9EF" stroke-width="0.5"/>
<path d="M237.5 0V1024" stroke="#E8E9EF" stroke-width="0.5"/>
<path d="M247 0V1024" stroke="#E8E9EF" stroke-width="0.5"/>
<path d="M256.5 0V1024" stroke="#E8E9EF" stroke-width="0.5"/>
<path d="M266 0V1024" stroke="#E8E9EF" stroke-width="0.5"/>
<path d="M275.5 0V1024" stroke="#E8E9EF" stroke-width="0.5"/>
<path d="M285 0V1024" stroke="#E8E9EF" stroke-width="0.5"/>
<path d="M294.5 0V1024" stroke="#E8E9EF" stroke-width="0.5"/>
<path d="M304 0V1024" stroke="#E8E9EF" stroke-width="0.5"/>
<path d="M313.5 0V1024" stroke="#E8E9EF" stroke-width="0.5"/>
<path d="M323 0V1024" stroke="#E8E9EF" stroke-width="0.5"/>
<path d="M332.5 0V1024" stroke="#E8E9EF" stroke-width="0.5"/>
<path d="M342 0V1024" stroke="#E8E9EF" stroke-width="0.5"/>
<path d="M351.5 0V1024" stroke="#E8E9EF" stroke-width="0.5"/>
<path d="M361 0V1024" stroke="#E8E9EF" stroke-width="0.5"/>
<path d="M370.5 0V1024" stroke="#E8E9EF" stroke-width="0.5"/>
<path d="M380 0V1024" stroke="#E8E9EF" stroke-width="0.5"/>
<path d="M389.5 0V1024" stroke="#E8E9EF" stroke-width="0.5"/>
<path d="M399 0V1024" stroke="#E8E9EF" stroke-width="0.5"/>
<path d="M408.5 0V1024" stroke="#E8E9EF" stroke-width="0.5"/>
<path d="M418 0V1024" stroke="#E8E9EF" stroke-width="0.5"/>
<path d="M427.5 0V1024" stroke="#E8E9EF" stroke-width="0.5"/>
<path d="M437 0V1024" stroke="#E8E9EF" stroke-width="0.5"/>
<path d="M446.5 0V1024" stroke="#E8E9EF" stroke-width="0.5"/>
<path d="M456 0V1024" stroke="#E8E9EF" stroke-width="0.5"/>
<path d="M465.5 0V1024" stroke="#E8E9EF" stroke-width="0.5"/>
<path d="M475 0V1024" stroke="#E8E9EF" stroke-width="0.5"/>
<path d="M484.5 0V1024" stroke="#E8E9EF" stroke-width="0.5"/>
<path d="M494 0V1024" stroke="#E8E9EF" stroke-width="0.5"/>
<path d="M503.5 0V1024" stroke="#E8E9EF" stroke-width="0.5"/>
<path d="M513 0V1024" stroke="#E8E9EF" stroke-width="0.5"/>
<path d="M522.5 0V1024" stroke="#E8E9EF" stroke-width="0.5"/>
<path d="M532 0V1024" stroke="#E8E9EF" stroke-width="0.5"/>
<path d="M541.5 0V1024" stroke="#E8E9EF" stroke-width="0.5"/>
<path d="M551 0V1024" stroke="#E8E9EF" stroke-width="0.5"/>
<path d="M560.5 0V1024" stroke="#E8E9EF" stroke-width="0.5"/>
<path d="M570 0V1024" stroke="#E8E9EF" stroke-width="0.5"/>
<path d="M579.5 0V1024" stroke="#E8E9EF" stroke-width="0.5"/>
<path d="M589 0V1024" stroke="#E8E9EF" stroke-width="0.5"/>
<path d="M598.5 0V1024" stroke="#E8E9EF" stroke-width="0.5"/>
<path d="M608 0V1024" stroke="#E8E9EF" stroke-width="0.5"/>
<path d="M617.5 0V1024" stroke="#E8E9EF" stroke-width="0.5"/>
<path d="M627 0V1024" stroke="#E8E9EF" stroke-width="0.5"/>
<path d="M636.5 0V1024" stroke="#E8E9EF" stroke-width="0.5"/>
<path d="M646 0V1024" stroke="#E8E9EF" stroke-width="0.5"/>
<path d="M655.5 0V1024" stroke="#E8E9EF" stroke-width="0.5"/>
<path d="M665 0V1024" stroke="#E8E9EF" stroke-width="0.5"/>
<path d="M674.5 0V1024" stroke="#E8E9EF" stroke-width="0.5"/>
<path d="M684 0V1024" stroke="#E8E9EF" stroke-width="0.5"/>
<path d="M693.5 0V1024" stroke="#E8E9EF" stroke-width="0.5"/>
<path d="M703 0V1024" stroke="#E8E9EF" stroke-width="0.5"/>
<path d="M712.5 0V1024" stroke="#E8E9EF" stroke-width="0.5"/>
<path d="M722 0V1024" stroke="#E8E9EF" stroke-width="0.5"/>
<path d="M731.5 0V1024" stroke="#E8E9EF" stroke-width="0.5"/>
<path d="M741 0V1024" stroke="#E8E9EF" stroke-width="0.5"/>
<path d="M750.5 0V1024" stroke="#E8E9EF" stroke-width="0.5"/>
<path d="M760 0V1024" stroke="#E8E9EF" stroke-width="0.5"/>
<path d="M769.5 0V1024" stroke="#E8E9EF" stroke-width="0.5"/>
<path d="M779 0V1024" stroke="#E8E9EF" stroke-width="0.5"/>
<path d="M788.5 0V1024" stroke="#E8E9EF" stroke-width="0.5"/>
<path d="M798 0V1024" stroke="#E8E9EF" stroke-width="0.5"/>
<path d="M807.5 0V1024" stroke="#E8E9EF" stroke-width="0.5"/>
<path d="M817 0V1024" stroke="#E8E9EF" stroke-width="0.5"/>
<path d="M826.5 0V1024" stroke="#E8E9EF" stroke-width="0.5"/>
<path d="M836 0V1024" stroke="#E8E9EF" stroke-width="0.5"/>
<path d="M845.5 0V1024" stroke="#E8E9EF" stroke-width="0.5"/>
<path d="M855 0V1024" stroke="#E8E9EF" stroke-width="0.5"/>
<path d="M864.5 0V1024" stroke="#E8E9EF" stroke-width="0.5"/>
<path d="M874 0V1024" stroke="#E8E9EF" stroke-width="0.5"/>
<path d="M883.5 0V1024" stroke="#E8E9EF" stroke-width="0.5"/>
<path d="M893 0V1024" stroke="#E8E9EF" stroke-width="0.5"/>
<path d="M902.5 0V1024" stroke="#E8E9EF" stroke-width="0.5"/>
<path d="M912 0V1024" stroke="#E8E9EF" stroke-width="0.5"/>
<path d="M921.5 0V1024" stroke="#E8E9EF" stroke-width="0.5"/>
<path d="M931 0V1024" stroke="#E8E9EF" stroke-width="0.5"/>
<path d="M940.5 0V1024" stroke="#E8E9EF" stroke-width="0.5"/>
<path d="M950 0V1024" stroke="#E8E9EF" stroke-width="0.5"/>
<path d="M959.5 0V1024" stroke="#E8E9EF" stroke-width="0.5"/>
<path d="M969 0V1024" stroke="#E8E9EF" stroke-width="0.5"/>
<path d="M978.5 0V1024" stroke="#E8E9EF" stroke-width="0.5"/>
<path d="M988 0V1024" stroke="#E8E9EF" stroke-width="0.5"/>
<path d="M997.5 0V1024" stroke="#E8E9EF" stroke-width="0.5"/>
<path d="M1007 0V1024" stroke="#E8E9EF" stroke-width="0.5"/>
<path d="M1016.5 0V1024" stroke="#E8E9EF" stroke-width="0.5"/>
<path d="M1026 0V1024" stroke="#E8E9EF" stroke-width="0.5"/>
<path d="M1035.5 0V1024" stroke="#E8E9EF" stroke-width="0.5"/>
<path d="M1045 0V1024" stroke="#E8E9EF" stroke-width="0.5"/>
<path d="M1054.5 0V1024" stroke="#E8E9EF" stroke-width="0.5"/>
<path d="M1064 0V1024" stroke="#E8E9EF" stroke-width="0.5"/>
<path d="M1073.5 0V1024" stroke="#E8E9EF" stroke-width="0.5"/>
<path d="M1083 0V1024" stroke="#E8E9EF" stroke-width="0.5"/>
<path d="M1092.5 0V1024" stroke="#E8E9EF" stroke-width="0.5"/>
<path d="M1102 0V1024" stroke="#E8E9EF" stroke-width="0.5"/>
<path d="M1111.5 0V1024" stroke="#E8E9EF" stroke-width="0.5"/>
<path d="M1121 0V1024" stroke="#E8E9EF" stroke-width="0.5"/>
<path d="M1130.5 0V1024" stroke="#E8E9EF" stroke-width="0.5"/>
<path d="M1140 0V1024" stroke="#E8E9EF" stroke-width="0.5"/>
<path d="M1149.5 0V1024" stroke="#E8E9EF" stroke-width="0.5"/>
<path d="M1159 0V1024" stroke="#E8E9EF" stroke-width="0.5"/>
<path d="M1168.5 0V1024" stroke="#E8E9EF" stroke-width="0.5"/>
<path d="M1178 0V1024" stroke="#E8E9EF" stroke-width="0.5"/>
<path d="M1187.5 0V1024" stroke="#E8E9EF" stroke-width="0.5"/>
<path d="M1197 0V1024" stroke="#E8E9EF" stroke-width="0.5"/>
<path d="M1206.5 0V1024" stroke="#E8E9EF" stroke-width="0.5"/>
<path d="M1216 0V1024" stroke="#E8E9EF" stroke-width="0.5"/>
<path d="M1225.5 0V1024" stroke="#E8E9EF" stroke-width="0.5"/>
<path d="M1235 0V1024" stroke="#E8E9EF" stroke-width="0.5"/>
<path d="M1244.5 0V1024" stroke="#E8E9EF" stroke-width="0.5"/>
<path d="M1254 0V1024" stroke="#E8E9EF" stroke-width="0.5"/>
<path d="M1263.5 0V1024" stroke="#E8E9EF" stroke-width="0.5"/>
<path d="M1273 0V1024" stroke="#E8E9EF" stroke-width="0.5"/>
<path d="M1282.5 0V1024" stroke="#E8E9EF" stroke-width="0.5"/>
<path d="M1292 0V1024" stroke="#E8E9EF" stroke-width="0.5"/>
<path d="M1301.5 0V1024" stroke="#E8E9EF" stroke-width="0.5"/>
<path d="M1311 0V1024" stroke="#E8E9EF" stroke-width="0.5"/>
<path d="M1320.5 0V1024" stroke="#E8E9EF" stroke-width="0.5"/>
<path d="M1330 0V1024" stroke="#E8E9EF" stroke-width="0.5"/>
<path d="M1339.5 0V1024" stroke="#E8E9EF" stroke-width="0.5"/>
<path d="M1349 0V1024" stroke="#E8E9EF" stroke-width="0.5"/>
<path d="M1358.5 0V1024" stroke="#E8E9EF" stroke-width="0.5"/>
<path d="M1368 0V1024" stroke="#E8E9EF" stroke-width="0.5"/>
<path d="M1377.5 0V1024" stroke="#E8E9EF" stroke-width="0.5"/>
<path d="M1387 0V1024" stroke="#E8E9EF" stroke-width="0.5"/>
<path d="M1396.5 0V1024" stroke="#E8E9EF" stroke-width="0.5"/>
<path d="M1406 0V1024" stroke="#E8E9EF" stroke-width="0.5"/>
<path d="M1415.5 0V1024" stroke="#E8E9EF" stroke-width="0.5"/>
<path d="M1425 0V1024" stroke="#E8E9EF" stroke-width="0.5"/>
</g>
<defs>
<clipPath id="clip0_525_15595">
<rect width="1425" height="1024" fill="white"/>
</clipPath>
</defs>
</svg>
